<?xml version="1.0" encoding="utf-8"?>
<!-- Generator: Adobe Illustrator 19.0.0, SVG Export Plug-In . SVG Version: 6.00 Build 0)  -->
<svg version="1.1" id="Capa_1" xmlns="http://www.w3.org/2000/svg" xmlns:xlink="http://www.w3.org/1999/xlink" x="0px" y="0px"
	 viewBox="0 0 425.2 425.2" style="enable-background:new 0 0 425.2 425.2;" xml:space="preserve">
<style type="text/css">
	.st0{fill:url(#XMLID_7_);}
	.st1{fill:url(#XMLID_8_);}
	.st2{fill:#FFFFFF;}
</style>
<g id="XMLID_4_">
	<g id="XMLID_419_">
		<g id="XMLID_423_">
			<linearGradient id="XMLID_7_" gradientUnits="userSpaceOnUse" x1="28.0235" y1="212.6" x2="397.1765" y2="212.6">
				<stop  offset="0.1701" style="stop-color:#35A4DD"/>
				<stop  offset="0.8145" style="stop-color:#33B4A5"/>
			</linearGradient>
			<path id="XMLID_424_" class="st0" d="M212.6,397.2c-7.3,0-14.6-1.4-21.5-4.3l-90.8-37.6c-13.8-5.7-24.6-16.5-30.4-30.4L32.3,234
				c-5.7-13.8-5.7-29.1,0-42.9L70,100.3c5.7-13.8,16.5-24.6,30.4-30.4l90.8-37.6c13.8-5.7,29.1-5.7,42.9,0L324.9,70
				c13.8,5.7,24.6,16.5,30.4,30.4l37.6,90.8c5.7,13.8,5.7,29.1,0,42.9l-37.6,90.8c-5.7,13.8-16.5,24.6-30.4,30.4L234,392.9
				C227.1,395.7,219.8,397.2,212.6,397.2z M212.6,37.8c-6,0-12,1.2-17.7,3.5L104.1,79C92.6,83.7,83.7,92.6,79,104l-37.6,90.8
				c-4.7,11.4-4.7,24,0,35.4L79,321.1c4.7,11.4,13.6,20.3,25.1,25.1l90.8,37.6c11.4,4.7,24,4.7,35.4,0l90.8-37.6
				c11.4-4.7,20.3-13.6,25.1-25.1l37.6-90.8c4.7-11.4,4.7-24,0-35.4l-37.6-90.8c-4.7-11.4-13.6-20.3-25.1-25.1l-90.8-37.6
				C224.6,39,218.6,37.8,212.6,37.8z"/>
		</g>
		<linearGradient id="XMLID_8_" gradientUnits="userSpaceOnUse" x1="58.1756" y1="212.599" x2="367.0246" y2="212.599">
			<stop  offset="0.1701" style="stop-color:#35A4DD"/>
			<stop  offset="0.8145" style="stop-color:#33B4A5"/>
		</linearGradient>
		<path id="XMLID_420_" class="st1" d="M363.7,195.8l-32.3-78.1c-4.5-10.8-13-19.4-23.8-23.8l-78.1-32.4c-10.8-4.5-22.9-4.5-33.7,0
			l-78.1,32.3c-10.8,4.5-19.4,13-23.8,23.8l-32.4,78.1c-4.5,10.8-4.5,22.9,0,33.7l32.3,78.1c4.5,10.8,13,19.4,23.8,23.8l78.1,32.4
			c10.8,4.5,22.9,4.5,33.7,0l78.1-32.3c10.8-4.5,19.4-13,23.8-23.8l32.4-78.1C368.1,218.7,368.1,206.6,363.7,195.8z M306,248.4
			l-16.1,38.9c-0.6,1.4-1.7,2.5-3.1,3.1l-53.4,22.1c-0.1,0.2-0.2,0.4-0.4,0.6L217,333.3c-2.3,2.9-6.6,2.9-8.9,0l-16.2-20.2
			c-0.1-0.1-0.1-0.1-0.1-0.2l-54.4-22.5c-1.4-0.6-2.5-1.7-3.1-3.1l-30-72.6c-0.6-1.4-0.6-2.9,0-4.3l30.1-72.5
			c0.6-1.4,1.7-2.5,3.1-3.1l54.4-22.5c0,0,0,0,0,0l16.3-20.4c2.3-2.8,6.5-2.8,8.8,0l16.3,20.4c0.1,0.2,0.2,0.3,0.3,0.5l53.3,22.1
			c1.4,0.6,2.5,1.7,3.1,3.1l16.1,38.9c1.5,3.7-1.2,7.8-5.2,7.8h-30.2c-2.3,0-4.3-1.4-5.2-3.5l-5.5-13.2c-0.6-1.4-1.7-2.5-3.1-3.1
			l-42.6-17.6c-1.4-0.6-2.9-0.6-4.3,0l-42.6,17.6c-1.4,0.6-2.5,1.7-3.1,3.1l-17.6,42.6c-0.6,1.4-0.6,2.9,0,4.3l17.6,42.6
			c0.6,1.4,1.7,2.5,3.1,3.1L210,278c1.4,0.6,2.9,0.6,4.3,0l42.6-17.6c1.4-0.6,2.5-1.7,3.1-3.1l5.5-13.2c0.9-2.1,2.9-3.5,5.2-3.5
			h30.2C304.8,240.6,307.6,244.7,306,248.4z"/>
	</g>
	<path id="XMLID_1_" class="st2" d="M306,248.4l-16.1,38.9c-0.6,1.4-1.7,2.5-3.1,3.1l-53.4,22.1c-0.1,0.2-0.2,0.4-0.4,0.6L217,333.3
		c-2.3,2.9-6.6,2.9-8.9,0l-16.2-20.2c-0.1-0.1-0.1-0.1-0.1-0.2l-54.4-22.5c-1.4-0.6-2.5-1.7-3.1-3.1l-30-72.6
		c-0.6-1.4-0.6-2.9,0-4.3l30.1-72.5c0.6-1.4,1.7-2.5,3.1-3.1l54.4-22.5c0,0,0,0,0,0l16.3-20.4c2.3-2.8,6.5-2.8,8.8,0l16.3,20.4
		c0.1,0.2,0.2,0.3,0.3,0.5l53.3,22.1c1.4,0.6,2.5,1.7,3.1,3.1l16.1,38.9c1.5,3.7-1.2,7.8-5.2,7.8h-30.2c-2.3,0-4.3-1.4-5.2-3.5
		l-5.5-13.2c-0.6-1.4-1.7-2.5-3.1-3.1l-42.6-17.6c-1.4-0.6-2.9-0.6-4.3,0l-42.6,17.6c-1.4,0.6-2.5,1.7-3.1,3.1l-17.6,42.6
		c-0.6,1.4-0.6,2.9,0,4.3l17.6,42.6c0.6,1.4,1.7,2.5,3.1,3.1L210,278c1.4,0.6,2.9,0.6,4.3,0l42.6-17.6c1.4-0.6,2.5-1.7,3.1-3.1
		l5.5-13.2c0.9-2.1,2.9-3.5,5.2-3.5h30.2C304.8,240.6,307.6,244.7,306,248.4z"/>
</g>
</svg>
